<?xml version="1.0" encoding="UTF-8"?>
<svg id="Capa_1" xmlns="http://www.w3.org/2000/svg" version="1.1" viewBox="0 0 136.55 136.55">
  <!-- Generator: Adobe Illustrator 30.3.0, SVG Export Plug-In . SVG Version: 2.1.3 Build 182)  -->
  <defs>
    <style>
      .st0 {
        fill: #16171a;
      }

      .st1 {
        fill: #6bc4cc;
      }
    </style>
  </defs>
  <rect class="st0" width="136.55" height="136.55" rx="10.98" ry="10.98"/>
  <g>
    <path class="st1" d="M105.12,33.91c-5.03-7.39-14.69-8.9-21.43-2.71l-54.59,54.82c-6.62,6.65-3.6,15.18,2.28,20.97,5.33,5.25,13.78,9.51,20.43,2.91l55.08-54.72c6.4-6.39,5.49-16.07-1.78-21.26ZM45.46,103.66c-3.71,1.34-5.42-1.19-7.58-3.2-2.45-2.27-4.56-4.75-2.61-8.09l35.95-35.96,10.76,10.79-36.52,36.47ZM101.55,47.47l-13.26,13.4-10.6-10.94,12.47-12.35c1.67-1.22,4.13-1.94,5.65-.4l5.69,5.75c.9.91,1.01,3.57.05,4.54Z"/>
    <path class="st1" d="M58.33,43.17l2.77-7.48c1.53-1.71,4.87-2.02,5.09-5.14-2.56-.67-5.73-.65-7.52-2.4-1.61-1.57-2.22-4.35-4.63-4.87l-2.3,6.95c-.71,2.14-4.5,2.7-5.52,4.81,1.71,1.97,5.14.85,6.53,2.3l5.58,5.82Z"/>
    <path class="st1" d="M103.93,88.64l-7.77,3.83-8.33-.65c.29,2.86,2.4,4.45,3.46,6.68,1.25,2.63-1.77,10.38.58,9.21l6.99-3.47,8.24.74-3.72-7.86.54-8.48Z"/>
  </g>
</svg>